<?xml version="1.0" encoding="utf-8"?>
<!-- Generator: Adobe Illustrator 27.5.0, SVG Export Plug-In . SVG Version: 6.00 Build 0)  -->
<svg version="1.1" id="Layer_1" xmlns="http://www.w3.org/2000/svg" xmlns:xlink="http://www.w3.org/1999/xlink" x="0px" y="0px"
	 viewBox="0 0 2000 2000" style="enable-background:new 0 0 2000 2000;" xml:space="preserve">
<rect style="fill:#FFFFFF;" width="2000" height="2000"/>
<g id="XMLID_5_">
	<path style="fill:#E9CFAE;" d="M1673.995,1900l-239.1-0.52c-4.498-105.11-13.428-123.073,19.838-476.256
		c51.109,19.92,26.27,10.605,112.16,41.882c0-0.129,0-0.26-0.13-0.39c118.1,42.18,104.899,212.166,104.899,353.725
		C1671.662,1872.893,1673.995,1900,1673.995,1900z"/>
	<path style="fill:#030404;" d="M1245.974,1577.654c53.421-60.293,105.547-123.052,169.86-169.601l38.899,15.172
		c-33.256,353.074-24.339,371.057-19.838,476.256l-160.396-0.388C1289.85,1794.604,1272.44,1687.05,1245.974,1577.654z"/>
	<path style="fill:#FFC7A7;" d="M1294.337,821.063c-0.385-12.327-0.122-2.917-1.296-49.144c17.404-4.691,30.787-6.519,37.084-24.246
		c3.483-9.378,24.376-62.372,24.376-71.445c0-24.992-26.235-39.839-46.03-26.192l-18.673,12.836
		c-0.007-0.2-1.037-28.973-1.037-29.175c8.746-10.352,3.882-4.496,22.562-27.359c33.571-29.019,86.862,0.319,75.983,46.938
		C1369.04,723.67,1351.421,847.7,1294.337,821.063z"/>
	<path style="fill:#FFB188;" d="M1293.041,771.92l1.037,40.844l-5.316-178.936l1.037,29.045l18.673-12.836
		c25.231-17.392,54.75,11.11,43.957,37.602C1323.097,766.592,1330.767,761.751,1293.041,771.92z"/>
	<path style="fill:#030404;" d="M1249.992,1340.368c0-0.2,0.473-2.137,0.52-2.333c17.743,16.521,38.003,20.628,165.322,70.019
		c-64.313,46.549-116.439,109.308-169.86,169.601c-30.861-128.628-71.186-247.918-71.315-316.641
		C1193.923,1298.218,1229.248,1329.996,1249.992,1340.368z"/>
	<path style="fill:#FF676A;" d="M1213.168,1613.701c-167.528,179.148-257.574,181.34-426.208,0
		C929.452,1654.029,1067.975,1654.715,1213.168,1613.701z"/>
	<path style="fill:#FFB188;" d="M1120.717,1090.376l40.456-32.935c-15.189,72.566-21.788,133.026,13.486,203.572
		c0.129,68.723,40.454,188.013,71.315,316.641c-10.892,12.189-21.785,24.246-32.805,36.047c-142.78,40.333-281.332,41.002-426.208,0
		c-31.897-33.972-62.239-70.149-94.006-104.64c5.187-59.774,16.727-114.882,44.216-161.819c0.129,0,0.129-0.131,0.129-0.131
		c4.28-2.464,8.429-5.576,12.189-9.076c0.046,0.197,0.52,2.133,0.52,2.333c103.958-61.15,112.397-165.944,88.82-282.926
		l40.456,32.935C948.569,1146.88,1050.04,1148.013,1120.717,1090.376z"/>
	<path style="fill:#030404;" d="M975.104,226.162c-55.885,137.446-182.308,236.12-262.439,362.153
		c2.454-82.229,2.001-80.956,3.63-96.599c10.891-104.25,86.356-209.538,148.854-245.584
		C889.785,231.868,930.629,226.553,975.104,226.162z"/>
	<path style="fill:#030404;" d="M737.17,1347.242c-27.488,46.938-39.028,102.046-44.216,161.819
		c-33.713-36.953-68.982-72.092-108.918-100.878c1.699-0.66,145.23-56.151,146.52-57.44
		C733.635,1349.322,736.487,1347.697,737.17,1347.242z"/>
	<path style="fill:#E9CFAE;" d="M1245.972,1577.654c-249.724,279.505-313.252,191.727-553.018-68.591
		c-10.717,115.85,4.936,259.479-34.878,390.159c397.886-0.864,303.106-0.834,616.423-0.13
		C1290.017,1793.446,1271.908,1684.756,1245.972,1577.654z"/>
	<path style="fill:#FFB188;" d="M711.237,633.827l-5.315,178.936l1.036-40.844c-17.44-4.702-30.679-6.512-37.212-24.246
		c-3.097-8.385-24.378-62.551-24.378-71.445c0-25.096,26.446-39.782,46.161-26.192l18.671,12.836L711.237,633.827z"/>
	<path style="fill:#FFC7A7;" d="M711.237,633.698c0,0.202-1.03,28.974-1.038,29.175l-18.671-12.836
		c-25.644-17.678-55.287,12.109-43.956,37.602c29.492,79.853,22.432,74.32,59.385,84.281c-1.174,46.226-0.91,36.816-1.296,49.144
		c-7.917,3.694-16.997,3.629-24.766-0.129c-36.788-18.792-35.877-43.082-68.203-167.658c-11.703-43.886,41.052-77.134,75.983-46.938
		C707.56,629.642,702.313,623.344,711.237,633.698z"/>
	<path style="fill:#E9CFAE;" d="M443.481,1899.741L326.005,1900c0,0,2.334-29.962,2.334-81.559
		c0-153.192-10.628-264.704,72.612-335.831C417.454,1570.447,470.632,1734.797,443.481,1899.741z"/>
	<path style="fill:#030404;" d="M658.074,1899.222l-214.594,0.52c27.205-165.267-26.289-330.692-42.53-417.131
		c13.533-11.542,13.563-11.206,32.287-17.894c-0.13,0.13-0.13,0.261-0.13,0.39c87.911-32.012,53.482-19.027,150.929-56.924
		c39.936,28.786,75.204,63.925,108.918,100.878C682.239,1624.92,697.888,1768.544,658.074,1899.222z"/>
	<path style="fill:#030404;" d="M712.664,588.315l-1.428,45.382c-8.924-10.354-3.676-4.056-22.562-27.359
		c-26.704-23.085-67.435-9.492-75.983,23.211c-1.862,6.751-1.967,16.353,0,23.727c19.481,75.072,36.437,194.169,92.969,167.787
		c-4.416,139.533,58.477,175.496,133.036,236.247h0.13c0,17.738,60.157,195.424-88.82,283.057c0-0.2-0.473-2.137-0.52-2.333
		c-3.76,3.5-7.909,6.613-12.189,9.076c0,0,0,0.131-0.129,0.131c-0.683,0.456-3.535,2.08-6.613,3.501
		c-4.15,4.15-291.912,112.347-297.449,114.364c0-0.129,0-0.26,0.13-0.39c-19.208,6.862-18.58,6.204-32.287,17.894
		C359.624,1264.317,533.95,176.488,886.802,147.196c0-17.734,62.234-47.196,117.476-47.196
		c322.476,0,475.091,486.889,475.091,852.154c0,274.184,0.104,210.326-24.637,471.07c-185.216-72.234-188.018-70.106-204.22-85.19
		c-0.047,0.197-0.52,2.133-0.52,2.333c-17.734-8.867-54.023-38.198-75.334-79.354c-49.875-99.749-13.486-184.381-13.486-203.703
		h0.13c72.525-59.094,137.465-96.301,133.035-236.247c3.891,1.814,8.039,2.722,12.059,2.722c4.409,0,8.688-0.908,12.707-2.852
		c36.641-18.852,35.735-42.534,68.203-167.658c1.838-7.867,1.969-15.573,0-23.727c-8.535-32.662-49.232-46.333-75.983-23.211
		c-18.678,22.863-13.815,17.007-22.562,27.359l-3.76-123.57c-0.129-6.223-0.647-12.189-1.296-18.412
		c-11.022-104.25-86.356-209.538-148.856-245.584c-29.173-16.857-81.039-21.136-134.85-19.84c-8.428-0.259-16.726-0.259-24.896-0.13
		c-44.474,0.39-85.318,5.705-109.955,19.969c-62.498,36.047-137.963,141.334-148.854,245.584
		c-0.649,6.223-1.167,12.189-1.296,18.412L712.664,588.315z"/>
	<path style="fill:#FFC7A7;" d="M999.999,1133.164c-77.251,0-115.988-38.939-161.172-75.722v-0.131h-0.13
		C689.434,935.69,701.199,953.082,712.664,588.315c80.131-126.033,206.554-224.707,262.439-362.153
		c45.175-0.716,120.837-2.513,159.746,19.969c71.069,40.99,148.019,161.615,150.152,263.996
		c4.579,150.498,9.336,310.936,9.336,310.936c4.418,139.582-58.376,175.415-133.035,236.247h-0.13v0.131
		C1116.41,1093.882,1077.486,1133.164,999.999,1133.164z"/>
</g>
</svg>
